<?xml version="1.0" encoding="UTF-8" standalone="no"?>
<!-- Created with Inkscape (http://www.inkscape.org/) -->

<svg
   width="2560"
   height="1440"
   viewBox="0 0 2560 1440"
   version="1.1"
   id="svg1"
   xml:space="preserve"
   inkscape:export-filename="bitmap.svg"
   inkscape:export-xdpi="96"
   inkscape:export-ydpi="96"
   xmlns:inkscape="http://www.inkscape.org/namespaces/inkscape"
   xmlns:sodipodi="http://sodipodi.sourceforge.net/DTD/sodipodi-0.dtd"
   xmlns:xlink="http://www.w3.org/1999/xlink"
   xmlns="http://www.w3.org/2000/svg"
   xmlns:svg="http://www.w3.org/2000/svg"><sodipodi:namedview
     id="namedview1"
     pagecolor="#000000"
     bordercolor="#000000"
     borderopacity="0.25"
     inkscape:showpageshadow="2"
     inkscape:pageopacity="0.0"
     inkscape:pagecheckerboard="0"
     inkscape:deskcolor="#d1d1d1"
     inkscape:document-units="px"
     inkscape:zoom="0.11024306"
     inkscape:cx="195.02362"
     inkscape:cy="-548.7874"
     inkscape:window-width="1147"
     inkscape:window-height="837"
     inkscape:window-x="-8"
     inkscape:window-y="-8"
     inkscape:window-maximized="0"
     inkscape:current-layer="svg1"
     showguides="true"><inkscape:page
       x="0"
       y="0"
       width="2560"
       height="1440"
       id="page2"
       margin="0"
       bleed="0" /></sodipodi:namedview><defs
     id="defs1"><linearGradient
       id="linearGradient2304"
       inkscape:collect="always"><stop
         style="stop-color:#000000;stop-opacity:1;"
         offset="0"
         id="stop2304" /><stop
         style="stop-color:#000000;stop-opacity:0;"
         offset="1"
         id="stop2305" /></linearGradient><linearGradient
       id="linearGradient1884"
       inkscape:collect="always"><stop
         style="stop-color:#ed4447;stop-opacity:1;"
         offset="0"
         id="stop1884" /><stop
         style="stop-color:#2c54dc;stop-opacity:1;"
         offset="1"
         id="stop1885" /></linearGradient><linearGradient
       inkscape:collect="always"
       xlink:href="#linearGradient1884"
       id="linearGradient1885"
       x1="25.443829"
       y1="1292.5927"
       x2="311.02637"
       y2="1292.5927"
       gradientUnits="userSpaceOnUse"
       gradientTransform="translate(-202.04323,-3.2070355)" /><filter
       style="color-interpolation-filters:sRGB"
       inkscape:label="Cross Blur"
       id="filter2304"
       x="-0.0030305194"
       y="-0.011934467"
       width="1.0072623"
       height="1.023534"><feColorMatrix
         in="SourceGraphic"
         values="1 0 0 0 0 0 1 0 0 0 0 0 1 0 0 -0.2125 -0.7154 -0.0721 1 0 "
         result="colormatrix"
         id="feColorMatrix2303" /><feComposite
         in="SourceGraphic"
         in2="colormatrix"
         operator="arithmetic"
         k2="1"
         k3="1.09"
         k4="0"
         result="composite"
         id="feComposite2303"
         k1="0" /><feGaussianBlur
         stdDeviation="2.69 0.01"
         result="blur1"
         id="feGaussianBlur2303" /><feGaussianBlur
         in="composite"
         stdDeviation="0.01 1.6"
         result="blur2"
         id="feGaussianBlur2304" /><feBlend
         in="blur2"
         in2="blur1"
         mode="darken"
         result="blend"
         id="feBlend2304" /></filter><linearGradient
       inkscape:collect="always"
       xlink:href="#linearGradient2304"
       id="linearGradient2305"
       x1="-176.5994"
       y1="1289.3857"
       x2="108.98314"
       y2="1289.3857"
       gradientUnits="userSpaceOnUse" /></defs><g
     id="g2303"
     style="filter:url(#filter2304)"
     transform="translate(-2)"><path
       d="m -95.29619,1193.4797 -69.7149,120.75 c -27.3279,47.33 6.8319,106.5 61.4879,106.5 H 35.9068 c 54.656,0 88.816,-59.17 61.488,-106.5 l -69.715,-120.75 c -27.3279996,-47.334 -95.64799,-47.334 -122.97599,0 z"
       stroke="url(#paint68_linear_1836_4810)"
       stroke-opacity="0.2"
       stroke-width="4"
       id="path69"
       style="fill:none;stroke:url(#linearGradient1885);stroke-width:4;stroke-dasharray:none"
       inkscape:tile-cx="165.02807"
       inkscape:tile-cy="1289.3545"
       inkscape:tile-w="285.58254"
       inkscape:tile-h="266.68799"
       inkscape:tile-x0="22.2368"
       inkscape:tile-y0="1156.0417" /><use
       x="0"
       y="0"
       inkscape:tiled-clone-of="#path69"
       xlink:href="#path69"
       id="use2220" /><use
       x="0"
       y="0"
       inkscape:tiled-clone-of="#path69"
       xlink:href="#path69"
       transform="matrix(1.0175153,-0.0711516,0.0711516,1.0175153,-62.58923,-27.655852)"
       opacity="0.988"
       id="use2221"
       style="fill:url(#linearGradient2305);fill-opacity:1" /><use
       x="0"
       y="0"
       inkscape:tiled-clone-of="#path69"
       xlink:href="#path69"
       transform="matrix(1.0298788,-0.14474002,0.14474002,1.0298788,-128.49454,-48.751502)"
       opacity="0.976"
       id="use2222" /><use
       x="0"
       y="0"
       inkscape:tiled-clone-of="#path69"
       xlink:href="#path69"
       transform="matrix(1.0368365,-0.22038639,0.22038639,1.0368365,-197.23603,-62.94674)"
       opacity="0.964"
       id="use2223" /><use
       x="0"
       y="0"
       inkscape:tiled-clone-of="#path69"
       xlink:href="#path69"
       transform="matrix(1.0381626,-0.29768834,0.29768834,1.0381626,-268.30257,-69.936964)"
       opacity="0.952"
       id="use2224" /><use
       x="0"
       y="0"
       inkscape:tiled-clone-of="#path69"
       xlink:href="#path69"
       transform="matrix(1.0336619,-0.37622216,0.37622216,1.0336619,-341.1544,-69.455866)"
       opacity="0.94"
       id="use2225" /><use
       x="0"
       y="0"
       inkscape:tiled-clone-of="#path69"
       xlink:href="#path69"
       transform="matrix(1.0231709,-0.45554504,0.45554504,1.0231709,-415.22614,-61.277925)"
       opacity="0.928"
       id="use2226" /><use
       x="0"
       y="0"
       inkscape:tiled-clone-of="#path69"
       xlink:href="#path69"
       transform="matrix(1.0065603,-0.53519758,0.53519758,1.0065603,-489.92981,-45.220684)"
       opacity="0.916"
       id="use2227" /><use
       x="0"
       y="0"
       inkscape:tiled-clone-of="#path69"
       xlink:href="#path69"
       transform="matrix(0.98373579,-0.61470635,0.61470635,0.98373579,-564.65819,-21.146785)"
       opacity="0.904"
       id="use2228" /><use
       x="0"
       y="0"
       inkscape:tiled-clone-of="#path69"
       xlink:href="#path69"
       transform="matrix(0.95464005,-0.6935866,0.6935866,0.95464005,-638.78822,11.034266)"
       opacity="0.892"
       id="use2229" /><use
       x="0"
       y="0"
       inkscape:tiled-clone-of="#path69"
       xlink:href="#path69"
       transform="matrix(0.91925333,-0.77134513,0.77134513,0.91925333,-711.68463,51.364546)"
       opacity="0.88"
       id="use2230" /><use
       x="0"
       y="0"
       inkscape:tiled-clone-of="#path69"
       xlink:href="#path69"
       transform="matrix(0.87759456,-0.84748321,0.84748321,0.87759456,-782.70375,99.836499)"
       opacity="0.868"
       id="use2231" /><use
       x="0"
       y="0"
       inkscape:tiled-clone-of="#path69"
       xlink:href="#path69"
       transform="matrix(0.82972195,-0.92149958,0.92149958,0.82972195,-851.19732,156.39203)"
       opacity="0.856"
       id="use2232" /><use
       x="0"
       y="0"
       inkscape:tiled-clone-of="#path69"
       xlink:href="#path69"
       transform="matrix(0.77573346,-0.99289355,0.99289355,0.77573346,-916.51645,220.92175)"
       opacity="0.844"
       id="use2233" /><use
       x="0"
       y="0"
       inkscape:tiled-clone-of="#path69"
       xlink:href="#path69"
       transform="matrix(0.71576692,-1.0611681,1.0611681,0.71576692,-978.01564,293.26476)"
       opacity="0.832"
       id="use2234" /><use
       x="0"
       y="0"
       inkscape:tiled-clone-of="#path69"
       xlink:href="#path69"
       transform="matrix(0.65,-1.125833,1.125833,0.65,-1035.0569,373.20855)"
       opacity="0.82"
       id="use2235" /><use
       x="0"
       y="0"
       inkscape:tiled-clone-of="#path69"
       xlink:href="#path69"
       transform="matrix(0.57864991,-1.1864081,1.1864081,0.57864991,-1087.0136,460.4893)"
       opacity="0.808"
       id="use2236" /><use
       x="0"
       y="0"
       inkscape:tiled-clone-of="#path69"
       xlink:href="#path69"
       transform="matrix(0.50197284,-1.2424264,1.2424264,0.50197284,-1133.275,554.79247)"
       opacity="0.796"
       id="use2237" /><use
       x="0"
       y="0"
       inkscape:tiled-clone-of="#path69"
       xlink:href="#path69"
       transform="matrix(0.42026311,-1.2934369,1.2934369,0.42026311,-1173.2498,655.75381)"
       opacity="0.784"
       id="use2238" /><use
       x="0"
       y="0"
       inkscape:tiled-clone-of="#path69"
       xlink:href="#path69"
       transform="matrix(0.33385222,-1.3390081,1.3390081,0.33385222,-1206.3704,762.96052)"
       opacity="0.772"
       id="use2239" /><use
       x="0"
       y="0"
       inkscape:tiled-clone-of="#path69"
       xlink:href="#path69"
       transform="matrix(0.24310745,-1.3787309,1.3787309,0.24310745,-1232.0968,875.95289)"
       opacity="0.76"
       id="use2240" /><use
       x="0"
       y="0"
       inkscape:tiled-clone-of="#path69"
       xlink:href="#path69"
       transform="matrix(0.14843042,-1.4122211,1.4122211,0.14843042,-1249.9202,994.22602)"
       opacity="0.748"
       id="use2241" /><use
       x="0"
       y="0"
       inkscape:tiled-clone-of="#path69"
       xlink:href="#path69"
       transform="matrix(0.05025528,-1.4391228,1.4391228,0.05025528,-1259.3668,1117.2322)"
       opacity="0.736"
       id="use2242" /><use
       x="0"
       y="0"
       inkscape:tiled-clone-of="#path69"
       xlink:href="#path69"
       transform="matrix(-0.05095327,-1.4591106,1.4591106,-0.05095327,-1260.0017,1244.3832)"
       opacity="0.724"
       id="use2243" /><use
       x="0"
       y="0"
       inkscape:tiled-clone-of="#path69"
       xlink:href="#path69"
       transform="matrix(-0.15470213,-1.4718924,1.4718924,-0.15470213,-1251.4313,1375.0533)"
       opacity="0.712"
       id="use2244" /><use
       x="0"
       y="0"
       inkscape:tiled-clone-of="#path69"
       xlink:href="#path69"
       transform="matrix(-0.26047227,-1.4772116,1.4772116,-0.26047227,-1233.3072,1508.5818)"
       opacity="0.7"
       id="use2245" /><use
       x="0"
       y="0"
       inkscape:tiled-clone-of="#path69"
       xlink:href="#path69"
       transform="matrix(-0.36772128,-1.4748495,1.4748495,-0.36772128,-1205.3293,1644.2767)"
       opacity="0.688"
       id="use2246" /><use
       x="0"
       y="0"
       inkscape:tiled-clone-of="#path69"
       xlink:href="#path69"
       transform="matrix(-0.47588617,-1.464627,1.464627,-0.47588617,-1167.2475,1781.4183)"
       opacity="0.676"
       id="use2247" /><use
       x="0"
       y="0"
       inkscape:tiled-clone-of="#path69"
       xlink:href="#path69"
       transform="matrix(-0.58438629,-1.4464068,1.4464068,-0.58438629,-1118.8651,1919.2626)"
       opacity="0.664"
       id="use2248" /><use
       x="0"
       y="0"
       inkscape:tiled-clone-of="#path69"
       xlink:href="#path69"
       transform="matrix(-0.69262641,-1.4200946,1.4200946,-0.69262641,-1060.0404,2057.0451)"
       opacity="0.652"
       id="use2249" /><use
       x="0"
       y="0"
       inkscape:tiled-clone-of="#path69"
       xlink:href="#path69"
       transform="matrix(-0.8,-1.3856406,1.3856406,-0.8,-990.68895,2193.9857)"
       opacity="0.64"
       id="use2250" /><use
       x="0"
       y="0"
       inkscape:tiled-clone-of="#path69"
       xlink:href="#path69"
       transform="matrix(-0.9058925,-1.3430409,1.3430409,-0.9058925,-910.78451,2329.292)"
       opacity="0.628"
       id="use2251" /><use
       x="0"
       y="0"
       inkscape:tiled-clone-of="#path69"
       xlink:href="#path69"
       transform="matrix(-1.0096848,-1.2923376,1.2923376,-1.0096848,-820.36084,2462.1644)"
       opacity="0.616"
       id="use2252" /><use
       x="0"
       y="0"
       inkscape:tiled-clone-of="#path69"
       xlink:href="#path69"
       transform="matrix(-1.1107568,-1.2336204,1.2336204,-1.1107568,-719.51232,2591.8002)"
       opacity="0.604"
       id="use2253" /><use
       x="0"
       y="0"
       inkscape:tiled-clone-of="#path69"
       xlink:href="#path69"
       transform="matrix(-1.2084909,-1.1670261,1.1670261,-1.2084909,-608.39457,2717.3987)"
       opacity="0.592"
       id="use2254" /><use
       x="0"
       y="0"
       inkscape:tiled-clone-of="#path69"
       xlink:href="#path69"
       transform="matrix(-1.3022756,-1.0927389,1.0927389,-1.3022756,-487.22456,2838.1649)"
       opacity="0.58"
       id="use2255" /><use
       x="0"
       y="0"
       inkscape:tiled-clone-of="#path69"
       xlink:href="#path69"
       transform="matrix(-1.3915092,-1.0109906,1.0109906,-1.3915092,-356.28058,2953.3157)"
       opacity="0.568"
       id="use2256" /><use
       x="0"
       y="0"
       inkscape:tiled-clone-of="#path69"
       xlink:href="#path69"
       transform="matrix(-1.4756037,-0.92205952,0.92205952,-1.4756037,-215.90168,3062.083)"
       opacity="0.556"
       id="use2257" /><use
       x="0"
       y="0"
       inkscape:tiled-clone-of="#path69"
       xlink:href="#path69"
       transform="matrix(-1.5539878,-0.82626995,0.82626995,-1.5539878,-66.48675,3163.7194)"
       opacity="0.544"
       id="use2258" /><use
       x="0"
       y="0"
       inkscape:tiled-clone-of="#path69"
       xlink:href="#path69"
       transform="matrix(-1.6261109,-0.72399122,0.72399122,-1.6261109,91.5067,3257.5027)"
       opacity="0.532"
       id="use2259" /><use
       x="0"
       y="0"
       inkscape:tiled-clone-of="#path69"
       xlink:href="#path69"
       transform="matrix(-1.6914467,-0.61563626,0.61563626,-1.6914467,257.56404,3342.7401)"
       opacity="0.52"
       id="use2260" /><use
       x="0"
       y="0"
       inkscape:tiled-clone-of="#path69"
       xlink:href="#path69"
       transform="matrix(-1.7494963,-0.50165999,0.50165999,-1.7494963,431.11554,3418.773)"
       opacity="0.508"
       id="use2261" /><use
       x="0"
       y="0"
       inkscape:tiled-clone-of="#path69"
       xlink:href="#path69"
       transform="matrix(-1.7997916,-0.38255751,0.38255751,-1.7997916,611.53868,3484.9812)"
       opacity="0.496"
       id="use2262" /><use
       x="0"
       y="0"
       inkscape:tiled-clone-of="#path69"
       xlink:href="#path69"
       transform="matrix(-1.8418986,-0.25886197,0.25886197,-1.8418986,798.16078,3540.7872)"
       opacity="0.484"
       id="use2263" /><use
       x="0"
       y="0"
       inkscape:tiled-clone-of="#path69"
       xlink:href="#path69"
       transform="matrix(-1.8754204,-0.13114217,0.13114217,-1.8754204,990.2618,3585.6597)"
       opacity="0.472"
       id="use2264" /><use
       x="0"
       y="0"
       inkscape:tiled-clone-of="#path69"
       xlink:href="#path69"
       transform="matrix(-1.9,0,0,-1.9,1187.0778,3619.1183)"
       opacity="0.46"
       id="use2265" /><use
       x="0"
       y="0"
       inkscape:tiled-clone-of="#path69"
       xlink:href="#path69"
       transform="matrix(-1.915323,0.13393243,-0.13393243,-1.915323,1387.8045,3640.7362)"
       opacity="0.448"
       id="use2266" /><use
       x="0"
       y="0"
       inkscape:tiled-clone-of="#path69"
       xlink:href="#path69"
       transform="matrix(-1.9211201,0.26999582,-0.26999582,-1.9211201,1591.6006,3650.1438)"
       opacity="0.436"
       id="use2267" /><use
       x="0"
       y="0"
       inkscape:tiled-clone-of="#path69"
       xlink:href="#path69"
       transform="matrix(-1.9171693,0.40750691,-0.40750691,-1.9171693,1797.593,3647.032)"
       opacity="0.424"
       id="use2268" /><use
       x="0"
       y="0"
       inkscape:tiled-clone-of="#path69"
       xlink:href="#path69"
       transform="matrix(-1.9032982,0.54576196,-0.54576196,-1.9032982,2004.88,3631.1544)"
       opacity="0.412"
       id="use2269" /><use
       x="0"
       y="0"
       inkscape:tiled-clone-of="#path69"
       xlink:href="#path69"
       transform="matrix(-1.8793852,0.68404029,-0.68404029,-1.8793852,2212.5365,3602.3303)"
       opacity="0.4"
       id="use2270" /><use
       x="0"
       y="0"
       inkscape:tiled-clone-of="#path69"
       xlink:href="#path69"
       transform="matrix(-1.8453618,0.82160802,-0.82160802,-1.8453618,2419.6186,3560.4461)"
       opacity="0.388"
       id="use2271" /><use
       x="0"
       y="0"
       inkscape:tiled-clone-of="#path69"
       xlink:href="#path69"
       transform="matrix(-1.8012131,0.95772199,-0.95772199,-1.8012131,2625.1685,3505.4576)"
       opacity="0.376"
       id="use2272" /><use
       x="0"
       y="0"
       inkscape:tiled-clone-of="#path69"
       xlink:href="#path69"
       transform="matrix(-1.7469791,1.0916337,-1.0916337,-1.7469791,2828.22,3437.3912)"
       opacity="0.364"
       id="use2273" /><use
       x="0"
       y="0"
       inkscape:tiled-clone-of="#path69"
       xlink:href="#path69"
       transform="matrix(-1.6827553,1.2225933,-1.2225933,-1.6827553,3027.8029,3356.3446)"
       opacity="0.352"
       id="use2274" /><use
       x="0"
       y="0"
       inkscape:tiled-clone-of="#path69"
       xlink:href="#path69"
       transform="matrix(-1.6086933,1.349854,-1.349854,-1.6086933,3222.9491,3262.488)"
       opacity="0.34"
       id="use2275" /><use
       x="0"
       y="0"
       inkscape:tiled-clone-of="#path69"
       xlink:href="#path69"
       transform="matrix(-1.5250004,1.4726757,-1.4726757,-1.5250004,3412.6977,3156.0636)"
       opacity="0.328"
       id="use2276" /><use
       x="0"
       y="0"
       inkscape:tiled-clone-of="#path69"
       xlink:href="#path69"
       transform="matrix(-1.4319395,1.5903299,-1.5903299,-1.4319395,3596.1001,3037.386)"
       opacity="0.316"
       id="use2277" /><use
       x="0"
       y="0"
       inkscape:tiled-clone-of="#path69"
       xlink:href="#path69"
       transform="matrix(-1.3298288,1.7021032,-1.7021032,-1.3298288,3772.2259,2906.841)"
       opacity="0.304"
       id="use2278" /><use
       x="0"
       y="0"
       inkscape:tiled-clone-of="#path69"
       xlink:href="#path69"
       transform="matrix(-1.2190405,1.8073019,-1.8073019,-1.2190405,3940.1681,2764.8853)"
       opacity="0.292"
       id="use2279" /><use
       x="0"
       y="0"
       inkscape:tiled-clone-of="#path69"
       xlink:href="#path69"
       transform="matrix(-1.1,1.9052559,-1.9052559,-1.1,4099.0483,2612.0447)"
       opacity="0.28"
       id="use2280" /><use
       x="0"
       y="0"
       inkscape:tiled-clone-of="#path69"
       xlink:href="#path69"
       transform="matrix(-0.97318395,1.9953228,-1.9953228,-0.97318395,4248.0221,2448.912)"
       opacity="0.268"
       id="use2281" /><use
       x="0"
       y="0"
       inkscape:tiled-clone-of="#path69"
       xlink:href="#path69"
       transform="matrix(-0.83911877,2.0768918,-2.0768918,-0.83911877,4386.2843,2276.1453)"
       opacity="0.256"
       id="use2282" /><use
       x="0"
       y="0"
       inkscape:tiled-clone-of="#path69"
       xlink:href="#path69"
       transform="matrix(-0.69837841,2.1493877,-2.1493877,-0.69837841,4513.0736,2094.4651)"
       opacity="0.244"
       id="use2283" /><use
       x="0"
       y="0"
       inkscape:tiled-clone-of="#path69"
       xlink:href="#path69"
       transform="matrix(-0.55158192,2.2122743,-2.2122743,-0.55158192,4627.6778,1904.6516)"
       opacity="0.232"
       id="use2284" /><use
       x="0"
       y="0"
       inkscape:tiled-clone-of="#path69"
       xlink:href="#path69"
       transform="matrix(-0.39939081,2.2650578,-2.2650578,-0.39939081,4729.4381,1707.541)"
       opacity="0.22"
       id="use2285" /><use
       x="0"
       y="0"
       inkscape:tiled-clone-of="#path69"
       xlink:href="#path69"
       transform="matrix(-0.24250603,2.3072908,-2.3072908,-0.24250603,4817.7536,1504.0218)"
       opacity="0.208"
       id="use2286" /><use
       x="0"
       y="0"
       inkscape:tiled-clone-of="#path69"
       xlink:href="#path69"
       transform="matrix(-0.08166482,2.3385745,-2.3385745,-0.08166482,4892.0855,1295.0312)"
       opacity="0.196"
       id="use2287" /><use
       x="0"
       y="0"
       inkscape:tiled-clone-of="#path69"
       xlink:href="#path69"
       transform="matrix(0.08236281,2.3585624,-2.3585624,0.08236281,4951.9605,1081.5504)"
       opacity="0.184"
       id="use2288" /><use
       x="0"
       y="0"
       inkscape:tiled-clone-of="#path69"
       xlink:href="#path69"
       transform="matrix(0.24877774,2.3669621,-2.3669621,0.24877774,4996.9752,864.59961)"
       opacity="0.172"
       id="use2289" /><use
       x="0"
       y="0"
       inkscape:tiled-clone-of="#path69"
       xlink:href="#path69"
       transform="matrix(0.41675563,2.3635386,-2.3635386,0.41675563,5026.7984,645.23395)"
       opacity="0.16"
       id="use2290" /><use
       x="0"
       y="0"
       inkscape:tiled-clone-of="#path69"
       xlink:href="#path69"
       transform="matrix(0.58545099,2.3481157,-2.3481157,0.58545099,5041.1742,424.53755)"
       opacity="0.148"
       id="use2291" /><use
       x="0"
       y="0"
       inkscape:tiled-clone-of="#path69"
       xlink:href="#path69"
       transform="matrix(0.75400147,2.3205779,-2.3205779,0.75400147,5039.925,203.61835)"
       opacity="0.136"
       id="use2292" /><use
       x="0"
       y="0"
       inkscape:tiled-clone-of="#path69"
       xlink:href="#path69"
       transform="matrix(0.92153222,2.2808723,-2.2808723,0.92153222,5022.9526,-16.39742)"
       opacity="0.124"
       id="use2293" /><use
       x="0"
       y="0"
       inkscape:tiled-clone-of="#path69"
       xlink:href="#path69"
       transform="matrix(1.0871604,2.2290092,-2.2290092,1.0871604,4990.2404,-234.37119)"
       opacity="0.112"
       id="use2294" /><use
       x="0"
       y="0"
       inkscape:tiled-clone-of="#path69"
       xlink:href="#path69"
       transform="matrix(1.25,2.1650635,-2.1650635,1.25,4941.8553,-449.15786)"
       opacity="0.1"
       id="use2295" /><use
       x="0"
       y="0"
       inkscape:tiled-clone-of="#path69"
       xlink:href="#path69"
       transform="matrix(1.4091661,2.0891747,-2.0891747,1.4091661,4877.9471,-659.61194)"
       opacity="0.088"
       id="use2296" /><use
       x="0"
       y="0"
       inkscape:tiled-clone-of="#path69"
       xlink:href="#path69"
       transform="matrix(1.5637801,2.0015473,-2.0015473,1.5637801,4798.7498,-864.59364)"
       opacity="0.076"
       id="use2297" /><use
       x="0"
       y="0"
       inkscape:tiled-clone-of="#path69"
       xlink:href="#path69"
       transform="matrix(1.7129744,1.9024508,-1.9024508,1.7129744,4704.5815,-1062.975)"
       opacity="0.064"
       id="use2298" /><use
       x="0"
       y="0"
       inkscape:tiled-clone-of="#path69"
       xlink:href="#path69"
       transform="matrix(1.8558967,1.7922186,-1.7922186,1.8558967,4595.8433,-1253.6462)"
       opacity="0.052"
       id="use2299" /><use
       x="0"
       y="0"
       inkscape:tiled-clone-of="#path69"
       xlink:href="#path69"
       transform="matrix(1.9917156,1.6712478,-1.6712478,1.9917156,4473.0192,-1435.5214)"
       opacity="0.04"
       id="use2300" /><use
       x="0"
       y="0"
       inkscape:tiled-clone-of="#path69"
       xlink:href="#path69"
       transform="matrix(2.1196245,1.5399974,-1.5399974,2.1196245,4336.6734,-1607.5457)"
       opacity="0.028"
       id="use2301" /><use
       x="0"
       y="0"
       inkscape:tiled-clone-of="#path69"
       xlink:href="#path69"
       transform="matrix(2.238847,1.3989869,-1.3989869,2.238847,4187.4498,-1768.6999)"
       opacity="0.016"
       id="use2302" /><use
       x="0"
       y="0"
       inkscape:tiled-clone-of="#path69"
       xlink:href="#path69"
       transform="matrix(2.3486406,1.2487944,-1.2487944,2.3486406,4026.0687,-1918.0074)"
       opacity="0.00400002"
       id="use2303" /></g></svg>
