<svg xmlns="http://www.w3.org/2000/svg" fill="none" viewBox="0 0 128 128">
    <path fill="#000" d="M50.4 78.5a75.1 75.1 0 0 0-28.5 6.9l24.2-65.7c.7-2 3.5-2 4.3 0l23.2 65.7s-11.6-7-23.2-6.9zM23.8 85.8l3.5-9.6c1.9-5.2 4-10.2 6.5-15l-13.5 36.8c-.7 2 .4 4.3 2.4 5a4 4 0 0 0 5-2.4l6.2-16.7a74.8 74.8 0 0 0-10.1 2zM74.3 42.4c2.5 4.9 4.6 10 6.4 15.2l3.5 9.5a75 75 0 0 0-10-2l6.1 16.5a4 4 0 0 0 5 2.4c2-.7 3.1-3 2.4-5L74.3 42.4z"/>
    <path fill="#000" d="M107.7 77.2a89.1 89.1 0 0 1-107.2 0A88.1 88.1 0 0 0 0 92.5a102.2 102.2 0 0 0 107.7 0 88.1 88.1 0 0 0-.1-15.3z"/>
    <path fill="#000" d="M42 71a7.4 7.4 0 1 0 0-14.8 7.4 7.4 0 0 0 0 14.8zM91.7 71a7.4 7.4 0 1 0 0-14.8 7.4 7.4 0 0 0 0 14.8z"/>
</svg>